<?xml version="1.0" encoding="utf-8"?>
<!-- Generator: Adobe Illustrator 23.0.6, SVG Export Plug-In . SVG Version: 6.00 Build 0)  -->
<svg version="1.1" id="Calque_1" xmlns="http://www.w3.org/2000/svg" xmlns:xlink="http://www.w3.org/1999/xlink" x="0px" y="0px"
	 viewBox="0 0 572 370.8" style="enable-background:new 0 0 572 370.8;" xml:space="preserve">
<style type="text/css">
	.st0{fill:#FFFFFF;}
</style>
<title>Logo</title>
<path class="st0" d="M282,34.3c1.7,6.7,1.5,14-0.5,22c-3,9.8-8.2,18.8-15,26.5c-6.7,7.3-13.8,14.5-21.5,21.5h-0.5
	c-1.9,0.8-3.7,1.7-5.5,2.8c-2,1.2-3.7,0.9-5-0.8c-1.7-1.7-1.8-3.2-0.2-4.5s2.9-2.7,4.2-4c6.6-6.2,12.7-12.9,18.2-20
	c5.6-7.2,10.2-15.1,13.8-23.5c3.7-9.3,3.6-17.3-0.2-24c-3.8-6.7-10.1-12.3-18.7-17c-8-4.3-15.8-5.7-23.2-4
	c-7.7,1.7-15.3,3.9-22.8,6.5c-9.1,2.9-17.7,7.1-25.5,12.5c-7.7,5.3-15.3,10.8-23,16.5c-1.7,1-3.3,2.2-4.8,3.5
	c-1.5,1.3-3.1,2.7-4.8,4c-1,3.3-3,5.2-6,5.5h-1.5c-0.6,1.8-1.5,3.5-2.8,5c-1.2,1.4-2.7,2.6-4.2,3.5c-3,0-5.2,1-6.8,3
	c-1.5,1.9-3,3.8-4.8,5.5c0,2.7-1.5,4.5-4.5,5.5c-2.3,1-4.2,2.6-5.5,4.8c-1.4,2.3-3.3,4.2-5.5,5.8c-0.5,3.2-2.9,5.7-6,6.5H99
	l-0.5,0.5c-0.7,3-2.2,4.7-4.5,5c-1.6,1.3-2.9,3-3.5,5c-0.7,2-2.3,3.3-5,4c-2.7,1.7-4.9,4.8-6.8,9.2c-1.8,4.5-4.1,7.2-6.8,8.2
	c-0.7,0.4-1.4,0.9-2,1.5c-0.3,0.3-0.6,0.5-1,0.5c-0.3,0-0.7,0.3-1,1v1.5c0.3-0.3,0.6-0.5,1-0.5c0.4,0,0.7-0.2,1-0.5
	c-2.6,4.6-5.4,9-8.5,13.2c-3,4.2-6.2,8.4-9.5,12.8c-3.5,4.4-6.6,9.2-9.2,14.2c-2.5,4.8-5.2,9.6-8.2,14.2c-3.9,6.5-6.9,13.6-8.8,21
	c-1.8,7.3-4.3,14.5-7.2,21.5c-1.7,4.7-2.6,9.7-2.8,14.8c-0.2,5.2-0.6,10.4-1.2,15.8c0,3.3,0.2,6.7,0.8,10c0.5,3,0.9,6,1.2,9
	c2,9.8,4.6,19.5,8,29c3.4,9.4,7.9,18.3,13.5,26.5c5.7,8.3,12.7,14.2,21,17.5c8.7,3.4,18.1,4.8,27.5,4c6.4-0.3,12.8-1.4,19-3.2
	c6.3-2,12.3-5.1,17.5-9.2c0.8-0.4,1.6-0.6,2.5-0.5c20.5-14.5,39.8-30.7,57.5-48.5c11-11.3,20.7-23.9,28.8-37.5
	c8-13.6,15.2-27.6,21.8-42c0.7-2,1.2-3.9,1.8-5.8c0.5-1.8,1.1-3.8,1.8-5.8c1.7,2.7,1.9,4.9,0.8,6.8c-1.2,1.9-1.6,4.1-1.2,6.2
	c0,0.3-0.1,0.5-0.2,0.8c-0.2,0.2-0.3,0.5-0.2,0.8c0.7,2.1,0.5,4.5-0.5,6.5c-1,1.9-1.6,3.9-2,6c-1.7,4.6-3.8,9.1-6.5,13.2
	c-2.7,4.2-4.7,8.9-6,13.8c-1.7,1.7-3,3.6-4,5.8c-1,2.2-2,4.2-3,6.2c-3,5.6-6.8,10.8-11.2,15.2c-4.6,4.6-8.7,9.7-12.2,15.2
	c2,1,3.3,0.8,4-0.8c0.5-1.3,1.6-2.4,3-2.8c2,1.7,3.2,1.8,3.5,0.5c0.3-1.2,0.8-2.4,1.5-3.5c2-0.3,2.6,0.3,1.8,2
	c-1.2,2.2-2.6,4.2-4.2,6c-2,2.3-4.2,4.7-6.5,7.2c-1.7,1.9-3.5,3.6-5.5,5.2c-1.6,1.2-3,2.7-4.2,4.2c-1.1,1.4-2.6,2.6-4.2,3.2
	c-3.4,3.4-7.1,6.6-11,9.5c-3.8,2.8-7.3,6-10.5,9.5c-5.3,5.7-11.5,10.6-18.2,14.5c-6.6,3.7-13.6,6.9-20.8,9.5
	c-7.1,2.6-14.5,4.5-22,5.5c-7.5,1-15.2,0.5-22.5-1.5c-10.2-2.5-20-6.7-28.8-12.5c-8.7-5.9-16.3-13.3-22.3-22
	c-9.4-13.7-16.3-28.9-20.5-45c-2-7.6-3-15.4-3-23.2c0-7.8,0.5-15.5,1.5-23.3c1.3-8.6,3.2-17.1,5.8-25.5c2.5-8.3,5.4-16.7,8.8-25
	c1.6-4.2,3.7-8.3,6.2-12c2.6-3.8,4.8-7.8,6.8-12c6.9-13.7,15.5-26.4,25.5-38c4.3-4.7,8.5-9.4,12.5-14.2s7.8-9.8,11.5-14.8
	c3.3-4.3,6.7-8.6,10-12.8c3.4-4.2,7.2-8,11.5-11.2c7-4.6,13.2-10.3,18.5-16.7c5.2-6.4,11.5-11.9,18.5-16.2
	c5.7-3.7,11.1-7.8,16.2-12.2c5.3-4.6,11.3-8.2,17.8-10.8c5-2.3,9.7-5.3,14-8.8c4.4-3.6,9.5-6.2,15-7.8c9.2-2.6,18.7-4.2,28.3-4.8
	c9.2-0.5,18.6,1.8,28.2,6.8c5.7,3.1,11,6.9,15.8,11.2C276.9,22.5,280.3,28.1,282,34.3z M179,311.8c-2.3,0-3.5,1.5-3.5,4.5
	c1.1-0.6,2.2-1.2,3.2-2c0.8-0.7,1.6-1.3,2.2-2c1.6-0.9,3.1-2,4.5-3.2c1.3-1.2,2-3.1,2-5.8c-2,1.3-3.8,2.6-5.2,3.8
	C180.7,308.3,179.6,309.9,179,311.8L179,311.8z M215.5,279.3c-1.3,4-2.7,6.8-4,8.2c-1.3,1.5-2.2,2.1-2.8,1.8s-0.3-1.4,0.5-3.2
	S212.2,282,215.5,279.3L215.5,279.3z M229,248.3c0.6-0.6,1-1.4,1-2.2c0-0.8,0.7-1.4,2-1.8c0,1.7,0.1,3.3,0.2,5
	c0.2,1.7-0.8,3.2-2.8,4.5c-1.7,4-2.8,6.3-3.2,6.8c-0.5,0.5-1.9,0.1-4.2-1.2c2-1.7,3.8-3.5,5.5-5.5c-0.7-1.3-0.5-2.3,0.5-3
	C228.9,250.4,229.3,249.3,229,248.3L229,248.3z M235,232.8c3.7-5.3,5.5-7.7,5.5-7c-0.1,1.2-0.2,2.3-0.5,3.5c-0.7,2-1.4,3.9-2.2,5.8
	c-0.9,1.9-1.6,3.8-2.2,5.8c-1.7-1.7-2.2-3.1-1.5-4.2C234.7,235.4,235,234.1,235,232.8L235,232.8z"/>
<path class="st0" d="M339.5,226.3c0.3,0,0.9,0.9,1.8,2.8c0.9,2.4,1.4,4.9,1.2,7.5c-0.1,3.9-0.8,7.8-2,11.5
	c-1.7,5.3-4.3,10.3-7.5,14.8c-2.7,4-6,7.6-9.8,10.8c-3.5,2.8-6.6,6.1-9.2,9.8c-2.7,3.7-6.6,5.3-11.8,5c-4.9-0.2-9.6-1.8-13.8-4.5
	c-1-0.4-1.7-1.4-1.5-2.5c-0.7-1.7-1.3-3.2-2-4.5c-0.9-1.7-2.1-3.2-3.5-4.5c-2-2.2-2.5-5.3-1.2-8c1.1-2.8,2-5.6,2.8-8.5
	c2-5.9,4.6-11.5,8-16.8c3.3-5.2,6.5-10.6,9.5-16.2c3-5.7,6.4-11.1,10.2-16.3c3.8-5.1,7-10.5,9.8-16.2c0.7-1.7,1.6-3.3,2.8-4.8
	c1.2-1.5,2.4-3.1,3.8-4.8c-0.5,0-1-0.1-1.5-0.2c-0.3-0.2-0.7-0.2-1-0.2c-5.3,5-10.7,9.9-16,14.8c-5.4,4.9-10.4,10.1-15,15.8
	c-4,5-8,9.9-12,14.8c-3.9,4.6-7.4,9.6-10.5,14.8c-3.7,6-7.3,12.1-10.8,18.3c-3.4,6-5.9,12.5-7.2,19.2c-0.7,2.8-1.1,5.6-1.2,8.5
	c-0.1,2.9-0.7,5.8-1.8,8.5c-1,2.7-1.9,5.3-2.8,8c-0.8,2.7-3.1,4.3-6.8,5c-2.3,0.7-3.5,2.7-3.5,6c0,2,0.2,4,0.5,6
	c0.3,2.3,0,3.5-1,3.5c-1,0.3-2-1.5-3-5.5c-0.9-3.3-1.5-6.6-2-10c-0.7-8.9,0.3-17.9,3-26.5c2.7-8.3,5.7-16.8,9-25.5l25.5-69
	c5-13,10.5-25.8,16.5-38.5c6-12.7,11.8-25.5,17.5-38.5c0-0.3,1-1.5,3-3.5c-0.7,0-0.6-1,0.2-3c0.8-2,2-4.4,3.5-7.2
	c1.5-2.8,2.9-5.4,4.2-7.8c0.7-1.4,1.6-2.7,2.5-4c1.4-2.8,3.1-5.5,5-8c2-2.6,3.7-5.5,5-8.5c2-4.6,4.5-9,7.5-13c3.1-4.1,5.7-8.4,8-13
	c1.3-2,2.7-3.9,4-5.8c1.4-1.9,2.9-3.6,4.5-5.2c2-2.3,4.1-3.2,6.2-2.8c1.9,0.4,3.7,1.1,5.2,2.2c1.4,1.2,2.2,2.9,2,4.8
	c0,2.1-0.7,4.1-2,5.8c-5.6,6.9-10.5,14.3-14.5,22.2c-4,7.8-8,15.6-12,23.2c0.7,0,0.6,1-0.2,3c-0.8,2-1.9,4.3-3.2,7
	c-1.3,2.7-2.7,5.3-4,7.8c-1.3,2.5-2.2,4.1-2.5,4.8c-1.7,5-3.8,9.9-6.2,14.5c-2.5,4.7-4.9,9.3-7.2,14c-5,10-9.8,20.1-14.2,30.2
	c-4.5,10.2-8.6,20.6-12.2,31.2c-1.3,0.7-2,1.5-2,2.5c0,1.1-0.4,2.1-1,3c2,0,3.1-0.5,3.2-1.5c0.1-0.9,0.6-1.8,1.2-2.5
	c12.3-16.7,27.8-30.8,45.5-41.5c2-1.3,3.5-1.8,4.5-1.5c1,0.3,2.5,1.7,4.5,4c0,0.2,0.1,0.5,0.4,0.5c0,0,0.1,0,0.1,0
	c3.7,0.7,5.9,1.7,6.8,3c0.8,1.3,1,3,0.5,4.5c-0.6,1.8-1.4,3.5-2.5,5c-1,1.3-1.6,2.9-1.8,4.5c0,2.7-0.9,5.3-2.5,7.5
	c-1.7,2.3-3.3,4.8-5,7.5c-3,5.7-6,11.2-9,16.5c-3,5.3-5.8,10.8-8.5,16.5c-0.7,1.8-1.9,3.4-3.2,4.8c-1.5,1.5-2.6,3.3-3.2,5.2
	c-1.7,3.6-3,7.4-4,11.2c-1,3.9-2.5,7.7-4.5,11.3c-1,2-2,3.9-3,5.8c-1.1,2.1-2,4.4-2.5,6.8c2.3-0.2,4.5-1.1,6.2-2.5
	c1.5-1.3,2.9-2.7,4.2-4c3.7-3.7,7.2-7.4,10.5-11.3c3.3-3.8,6.3-7.9,9-12.2c1.7-2.7,3.6-5.9,5.8-9.8
	C337.4,228.2,338.8,226.3,339.5,226.3z M252,244.3c1-0.5,2.1-1.1,3-1.8c0.7-0.5,0.8-1.6,0.5-3.2c-0.5,0.9-1.3,1.6-2.2,2
	C252.4,241.7,252,242.7,252,244.3z M262,222.3c1.4-2.4,2.5-4.9,3.5-7.5c1-2.8,1.9-5.6,2.5-8.5c-1,1.7-2.2,4.1-3.8,7.2
	C262.9,216.3,262.1,219.3,262,222.3z M268.5,200.8c2.7-0.7,4.8-2.9,6.5-6.8c1.7-3.8,2.2-7.1,1.5-9.8c-1,2.7-2.1,5.4-3.2,8.2
	C272,195.5,270.4,198.3,268.5,200.8L268.5,200.8z M278,181.8c0.6,0.3,1.3,0.2,1.8-0.2c0.4-0.3,0.7-0.8,0.8-1.2
	c0.2-2,0.7-3.9,1.5-5.8c0.7-1.5,1.2-2.8,1.8-4s1-2.5,1.5-4c0.6-2,1-4.1,1.2-6.2c-1,2.3-2.2,5.6-3.8,9.8c-1.5,4.2-3.2,7.1-5.2,8.8
	C276.5,179.8,276.7,180.8,278,181.8L278,181.8z M284.5,214.8c0.6-1.2,1.4-2.2,2.5-3c1-0.7,1.2-1.8,0.5-3.5c-0.7,1-1.5,1.8-2.5,2.5
	C284,211.5,283.8,212.8,284.5,214.8L284.5,214.8z M290.5,152.3c-2,1.3-2.5,3.3-1.5,6c-0.7-1-0.3-1.9,1-2.8
	C291.3,154.7,291.5,153.7,290.5,152.3L290.5,152.3z M291.5,254.8c1.7-2.3,3.3-4.7,5-7c1.8-2.7,2.8-5.8,3-9c-2,3-3.7,5.8-5,8.2
	C293.2,249.5,292.2,252.1,291.5,254.8z M296.5,137.8c-0.7,1.6-1.4,3.2-2.2,4.8c-0.8,1.5-0.8,3.2,0.2,5.2c0.7-1.7,1.2-3.3,1.8-5
	c0.5-1.7,1.1-3.3,1.8-5c0.9-1.6,2-3.1,3.2-4.5c1.2-1.3,1.4-3.3,0.8-6c-1.5,1.5-2.7,3.3-3.5,5.2C297.8,134.4,297.2,136.2,296.5,137.8
	L296.5,137.8z M298.5,195.8c1.9-0.8,3.8-1.8,5.5-3c1.5-1.3,2.6-3.1,3-5c-2.3,0.7-3.9,1.8-4.8,3.2C301.2,192.8,300,194.4,298.5,195.8
	L298.5,195.8z M304.5,125.8c0.6-1.2,0.9-2.6,0.8-4c-0.2-1-1.2-2-3.2-3c0.7,1.7,1.2,2.9,1.5,3.8C303.9,123.6,304.2,124.7,304.5,125.8
	L304.5,125.8z M308.5,116.8c0.7-1.3,1.7-3.2,3-5.8s2-4.1,2-4.8s-0.5-1-1.5-1c-1,0.3-1.3,0.9-1,1.8c0.3,0.8,0.1,1.7-0.5,2.2
	L308.5,116.8z M329.5,259.8c2-0.7,3.2-1.8,3.5-3.5c0.3-1.7,0.8-3.4,1.5-5c-1.7,1-3.4,1.9-5.2,2.8c-1.8,0.8-2.8,2.6-2.8,5.3
	c-2.3,0.3-3.8,1.3-4.5,3c-0.7,1.7-1.7,3.2-3,4.5c1.6-1.6,3.7-2.6,6-2.8C327.3,263.9,328.8,262.5,329.5,259.8z M336,249.3
	c1,0.7,1.5,0.2,1.5-1.5c-0.7-1.3-1.3-1.8-2-1.5c-1.3,0.7-1.8,1.5-1.5,2.5C334.6,249.2,335.3,249.4,336,249.3z"/>
<path class="st0" d="M452,143.8c1.7-0.3,3.8-0.8,6.5-1.2s4-0.1,4,1.2c0,1.3-0.8,2.5-2,3c-0.7,0.7-1.2,1-1.5,1c-2.7,1-5.1,2-7.2,3
	c-2.1,1-4.1,2.3-5.8,4c-5.7,5.7-11.6,11.1-17.8,16.2c-6.2,5.2-12.1,10.6-17.8,16.2c-6.2,6.2-11.9,12.9-17,20c-5,7-10.3,13.8-16,20.5
	c-3.6,4.6-6.7,9.5-9.2,14.8c-2.5,5.2-5.1,10.1-7.8,14.8c-2.5,3.7-3.9,8-4,12.5c-0.1,3.3-1.8,6.4-4.5,8.2c-2.7,1.8-5.8,2.2-9.5,1.2
	c-0.6-0.7-1.4-1.2-2.2-1.5c-0.8-0.3-1.1-1-0.8-2c0.7-2.7,1-5.5,1-8.2c0-2.9,0.9-5.8,2.5-8.2c1.3-1.8,1.9-4,1.8-6.3
	c-0.2-2.3,0.1-4.6,0.8-6.8c1-3,1.8-6,2.5-9c0.7-2.9,1.7-5.8,3-8.5c0.7-1.3,1.9-3.9,3.8-7.8s3.7-8,5.5-12.5c1.8-4.5,3.5-8.7,5-12.5
	c1.1-2.7,2-5.4,2.8-8.2c0.3-1.7,0.7-3.2,1-4.8c0.4-1.6,0.9-3.2,1.5-4.8c0.3-0.7,0.6-1.5,0.8-2.2c0.2-0.8-0.6-1.6-2.2-2.2
	c-1.3-0.7-1.9-1.5-1.8-2.5c0.2-1.1,0.6-2.1,1.2-3c1-1.6,1.8-3.3,2.5-5c0.7-1.8,1.2-3.6,1.5-5.5c0-1,0.7-1.8,2-2.5
	c1.5-0.7,3.1-1.2,4.8-1.5c1.7-0.3,3.5-0.3,5.2,0c1.5,0.3,2.9,0.9,4,2c4,3.7,6.5,7.5,7.5,11.5s0.7,9.5-1,16.5
	c7-6.3,13.5-12.3,19.5-18c5.7-4.7,11.4-9.3,17.2-14C437.5,147.2,444.6,144.4,452,143.8z"/>
<path class="st0" d="M494.5,195.3c0.3-0.3,0.8-0.1,1.5,0.8s0.2,3.4-1.5,7.8c-1.3,3.6-3,7-5,10.2c-1.7,2.5-2.7,3.6-3,3.2
	c-0.6,0.6-1.3,1.1-2,1.5c-2.9,3.5-5.6,7.2-8,11c-2.3,3.7-4.5,7.3-6.5,11c-1.5,3.4-3.7,6.4-6.5,8.8c-2.8,2.3-5.5,4.7-8,7.3l-4,4
	c-3.7,3.7-7.3,5.3-10.8,5s-7.4-1.8-11.8-4.5c-3-1.7-4.6-3.8-4.8-6.5c-0.1-2.3-0.8-4.6-2.2-6.5c-0.3,0.3-0.3-1.3,0-5s0.7-8,1.2-13
	c0.5-5,1.2-10,2.2-15c0.7-4.1,1.9-8.1,3.5-12c2.7-5.7,5.3-11.1,8-16.2c2.8-5.3,5.9-10.4,9.5-15.2c2.3-3.3,5.7-4.2,10-2.5
	c5.7,1.7,7,5.3,4,11c-1.7,3.8-3.9,7.3-6.5,10.5c-2.7,3.4-4.6,7.3-5.5,11.5c-2,7.6-4.4,15-7.2,22.3c-2.8,7.2-4,15-3.2,22.8
	c0,0.7-0.4,1.4-1,1.8c-0.7,0.5-0.7,1.2,0,2.2c5.5-2.5,10.4-6.1,14.5-10.5c4-4.3,8.2-8.7,12.5-13c5-5.7,9.9-11.2,14.8-16.5
	C483.6,206,488.8,200.7,494.5,195.3z M468,126.3c-1-0.7-1.2-1.2-0.8-1.8c0.5-0.5,0.8-1.1,0.8-1.8c0.3-3.4,1.2-6.7,2.8-9.8
	c1.5-2.8,2.9-5.7,4.2-8.8c0.8-2.4,2.4-4.4,4.5-5.8c2.2-1.2,4.5-2.2,7-2.8c1.7-0.3,3.5,0.7,5.5,3c1.9,2,2.8,4.8,2.5,7.5
	c-0.3,2.7-2.3,4.8-6,6.5c-6.1,3.3-11.7,7.5-16.5,12.5C470.7,126.7,469.3,127,468,126.3z"/>
<path class="st0" d="M570.5,153.8v1.8c0,0.5,0.5,0.8,1.5,0.8v1.5c-2.7,1.3-4.8,1.5-6.2,0.5c-1.7-1.2-3.3-2.5-4.8-4
	c-1.3-1.7-2.6-2.6-3.8-2.8c-1.9-0.1-3.9,0.2-5.8,0.8c-6.4,2.2-12.1,6.1-16.5,11.2c-4.4,5.2-9.2,10-14.5,14.2c-3,2.9-5.6,6.1-7.8,9.8
	c-2.8,4.5-5.5,9.1-8,13.8c-2.3,4.2-4.3,8.5-6,13c-1.5,4-2.1,6.5-1.8,7.5c0.7,2.3,1.2,4.6,1.8,6.8s2.4,3.9,5.8,5.2
	c5.7,2,11.5,3.8,17.5,5.2c6,1.5,11.7,4,17,7.2c5.3,3.3,6.2,7.5,2.5,12.5c-1.7,2-3.5,4-5.5,6c-1.9,1.9-4.1,3.6-6.5,5
	c-7.7,4.7-14.8,10-21.5,16c-6.6,6-14,11-22,15c-4.7,2.7-9.2,5.2-13.8,7.8c-4.5,2.5-9.3,4.4-14.2,5.8c-3.6,1.1-7.5-0.3-9.5-3.5
	c-2.9-3.7-3.7-8.6-2-13c3.5-8.4,8.3-16.1,14.2-23c5.8-6.7,11.8-13.3,17.8-20c2.3-2.3,4.7-4.4,7.2-6.2c2.5-1.8,5.1-3.7,7.8-5.8
	c0.8-0.5,1.6-1.1,2.5-1.5c0.7-0.3,0.7-1.3,0-3c-1.2-2.5-3-4.8-5.2-6.5c-2.1-1.6-3.6-3.9-4.2-6.5c-0.3-1.3-0.8-3.6-1.5-6.8
	c-0.7-3-0.7-6.2,0-9.3c2.7-12.7,7.6-23.6,14.8-32.8c7.3-9.3,15.6-17.8,24.8-25.2c3.1-2.8,6.4-5.3,9.8-7.8c8.1-5.2,18.4-5.8,27-1.5
	C565.8,144.6,569.1,148.8,570.5,153.8z M512.5,246.8c-2.6-1.2-5.4-2-8.3-2.2c-2.5-0.2-5.2,1.4-8.2,4.8c-4,4.3-7.8,8.7-11.5,13
	c-3.7,4.3-7.7,8.7-12,13c-4.3,4.7-8.5,11.3-12.5,20c11.7-6.7,22.8-13.4,33.2-20.2c10.4-6.8,19.9-15,28.3-24.3
	c-1.7-0.7-3.2-1.3-4.5-2S514.2,247.5,512.5,246.8L512.5,246.8z"/>
</svg>
