<svg id="Calque_1" data-name="Calque 1" xmlns="http://www.w3.org/2000/svg" xmlns:xlink="http://www.w3.org/1999/xlink" viewBox="0 0 482.554 344.841"><defs>

<style>
.animate{
 stroke-dasharray: 2200;
 stroke-dashoffset: 2200;
 animation: dash 6s linear forwards;
}
@keyframes dash {
    to {
    stroke-dashoffset: 0;
    }
}

.cls-1,.cls-3{fill:none;}.cls-2{clip-path:url(#clip-path);}.cls-3{stroke:#FFF;stroke-miterlimit:10;stroke-width:30px;}.cls-4{clip-path:url(#clip-path-2);}.cls-5{clip-path:url(#clip-path-3);}.cls-6{clip-path:url(#clip-path-4);}.cls-7{clip-path:url(#clip-path-5);}

</style>

<clipPath id="clip-path" transform="translate(-14.335 -9.538)"><path id="S" class="cls-1 animate" d="M480.477,143.533v1.4q0,.6,1.2.6v1.2c-2.138,1.069-3.8,1.2-5,.4a25.1,25.1,0,0,1-3.8-3.2,5.261,5.261,0,0,0-3-2.2,13.787,13.787,0,0,0-4.6.6,29.624,29.624,0,0,0-13.2,9,85.2,85.2,0,0,1-11.6,11.4,34.851,34.851,0,0,0-6.2,7.8q-3.4,5.4-6.4,11a87.148,87.148,0,0,0-4.8,10.4q-1.8,4.8-1.4,6,.8,2.8,1.4,5.4t4.6,4.2q6.8,2.4,14,4.2a47.179,47.179,0,0,1,13.6,5.8q6.393,4,2,10-2.007,2.4-4.4,4.8a24.813,24.813,0,0,1-5.2,4,114.7,114.7,0,0,0-17.2,12.8,79.105,79.105,0,0,1-17.6,12q-5.6,3.2-11,6.2a49.915,49.915,0,0,1-11.4,4.6,6.591,6.591,0,0,1-7.6-2.8,10.5,10.5,0,0,1-1.6-10.4,67.969,67.969,0,0,1,11.4-18.4q7-8.007,14.2-16a50.969,50.969,0,0,1,5.8-5q3-2.194,6.2-4.6a20.039,20.039,0,0,1,2-1.2q.8-.393,0-2.4a14.861,14.861,0,0,0-4.2-5.2,9.168,9.168,0,0,1-3.4-5.2q-.393-1.595-1.2-5.4a17.384,17.384,0,0,1,0-7.4,62.927,62.927,0,0,1,11.8-26.2,128.739,128.739,0,0,1,19.8-20.2,93.991,93.991,0,0,1,7.8-6.2,21.835,21.835,0,0,1,21.6-1.2A15.6,15.6,0,0,1,480.477,143.533Zm-46.4,74.4a19.873,19.873,0,0,0-6.6-1.8q-3-.2-6.6,3.8-4.8,5.2-9.2,10.4t-9.6,10.4q-5.195,5.6-10,16,14.005-8.006,26.6-16.2a112.516,112.516,0,0,0,22.6-19.4q-2.007-.8-3.6-1.6T434.077,217.933Z"/></clipPath><clipPath id="clip-path-2" transform="translate(-14.335 -9.538)"><path id="I" class="cls-1 animate" d="M419.681,176.733q.393-.394,1.2.6t-1.2,6.2a43.085,43.085,0,0,1-4,8.2q-2.005,3-2.4,2.6a6.194,6.194,0,0,1-1.6,1.2,91.361,91.361,0,0,0-6.4,8.8q-2.8,4.407-5.2,8.8a18.912,18.912,0,0,1-5.2,7,83.847,83.847,0,0,0-6.4,5.8l-3.2,3.2q-4.406,4.4-8.6,4a22.565,22.565,0,0,1-9.4-3.6c-2.4-1.338-3.663-3.063-3.8-5.2a8.983,8.983,0,0,0-1.8-5.2q-.394.4,0-4t1-10.4q.6-6,1.8-12a47.27,47.27,0,0,1,2.8-9.6q3.205-6.8,6.4-13a91.463,91.463,0,0,1,7.6-12.2q2.793-3.993,8-2,6.8,2.007,3.2,8.8a39.848,39.848,0,0,1-5.2,8.4,22.659,22.659,0,0,0-4.4,9.2,154.506,154.506,0,0,1-5.8,17.8,39.783,39.783,0,0,0-2.6,18.2,1.73,1.73,0,0,1-.8,1.4q-.807.6,0,1.8a37.042,37.042,0,0,0,11.6-8.4q4.8-5.195,10-10.4,6-6.8,11.8-13.2T419.681,176.733Zm-21.2-55.2q-1.2-.8-.6-1.4a1.91,1.91,0,0,0,.6-1.4,20.4,20.4,0,0,1,2.2-7.8q1.8-3.395,3.4-7a8.562,8.562,0,0,1,3.6-4.6,21.445,21.445,0,0,1,5.6-2.2q1.995-.394,4.4,2.4a7.544,7.544,0,0,1,2,6q-.4,3.206-4.8,5.2a52.256,52.256,0,0,0-13.2,10Q400.076,122.337,398.48,121.533Z"/></clipPath><clipPath id="clip-path-3" transform="translate(-14.335 -9.538)"><path id="R" class="cls-1 animate" d="M385.683,135.533c1.331-.262,3.062-.6,5.2-1s3.2-.063,3.2,1a2.565,2.565,0,0,1-1.6,2.4c-.537.537-.937.8-1.2.8q-3.207,1.2-5.8,2.4a15.776,15.776,0,0,0-4.6,3.2q-6.805,6.806-14.2,13t-14.2,13a127.094,127.094,0,0,0-13.6,16q-6,8.4-12.8,16.4a64.559,64.559,0,0,0-7.4,11.8q-3,6.206-6.2,11.8a19.145,19.145,0,0,0-3.2,10,8.462,8.462,0,0,1-3.6,6.6,8.762,8.762,0,0,1-7.6,1,5.183,5.183,0,0,0-1.8-1.2c-.663-.269-.863-.8-.6-1.6a26.986,26.986,0,0,0,.8-6.6,12.3,12.3,0,0,1,2-6.6,7.72,7.72,0,0,0,1.4-5,15.391,15.391,0,0,1,.6-5.4,71.594,71.594,0,0,0,2-7.2,29.861,29.861,0,0,1,2.4-6.8q.806-1.594,3-6.2t4.4-10q2.2-5.4,4-10a45.729,45.729,0,0,0,2.2-6.6q.394-2,.8-3.8a23.948,23.948,0,0,1,1.2-3.8,7.433,7.433,0,0,0,.6-1.8q.2-.995-1.8-1.8c-1.069-.532-1.538-1.2-1.4-2a6.056,6.056,0,0,1,1-2.4,28.161,28.161,0,0,0,2-4,21.469,21.469,0,0,0,1.2-4.4c0-.8.531-1.462,1.6-2a14.24,14.24,0,0,1,3.8-1.2,11.319,11.319,0,0,1,4.2,0,6.108,6.108,0,0,1,3.2,1.6q4.8,4.405,6,9.2t-.8,13.2q8.4-7.594,15.6-14.4,6.8-5.6,13.8-11.2A29.452,29.452,0,0,1,385.683,135.533Z"/></clipPath><clipPath id="clip-path-4" transform="translate(-14.335 -9.538)"><path id="H" class="cls-1 animate" d="M295.687,202.533c.262,0,.731.738,1.4,2.2a14.845,14.845,0,0,1,1,6,33.467,33.467,0,0,1-1.6,9.2,42.949,42.949,0,0,1-6,11.8,41.074,41.074,0,0,1-7.8,8.6,40.714,40.714,0,0,0-7.4,7.8q-3.207,4.4-9.4,4a22.043,22.043,0,0,1-11-3.6,1.853,1.853,0,0,1-1.2-2q-.807-2.007-1.6-3.6a14.8,14.8,0,0,0-2.8-3.6,5.888,5.888,0,0,1-1-6.4,58.451,58.451,0,0,0,2.2-6.8,59.02,59.02,0,0,1,6.4-13.4q3.993-6.2,7.6-13a101.618,101.618,0,0,1,8.2-13,76.536,76.536,0,0,0,7.8-13,15.468,15.468,0,0,1,2.2-3.8q1.4-1.8,3-3.8a2.707,2.707,0,0,1-1.2-.2,1.829,1.829,0,0,0-.8-.2q-6.4,6-12.8,11.8a119.33,119.33,0,0,0-12,12.6q-4.8,6-9.6,11.8a96.205,96.205,0,0,0-8.4,11.8q-4.407,7.2-8.6,14.6a51.525,51.525,0,0,0-5.8,15.4,36.856,36.856,0,0,0-1,6.8,22.85,22.85,0,0,1-1.4,6.8q-1.2,3.2-2.2,6.4t-5.4,4c-1.862.531-2.8,2.131-2.8,4.8a35.343,35.343,0,0,0,.4,4.8c.268,1.862,0,2.8-.8,2.8q-1.2.395-2.4-4.4a70.59,70.59,0,0,1-1.6-8,55.956,55.956,0,0,1,2.4-21.2q3.206-10,7.2-20.4l20.4-55.2q6-15.6,13.2-30.8t14-30.8c0-.263.8-1.2,2.4-2.8q-.805,0,.2-2.4t2.8-5.8q1.8-3.395,3.4-6.2a24.361,24.361,0,0,1,2-3.2,42.038,42.038,0,0,1,4-6.4,35.063,35.063,0,0,0,4-6.8,50.3,50.3,0,0,1,6-10.4,67.88,67.88,0,0,0,6.4-10.4q1.594-2.4,3.2-4.6a35.035,35.035,0,0,1,3.6-4.2c1.6-1.862,3.263-2.6,5-2.2a11.134,11.134,0,0,1,4.2,1.8,4.453,4.453,0,0,1,1.6,3.8,7.163,7.163,0,0,1-1.6,4.6,101.738,101.738,0,0,0-11.6,17.8q-4.8,9.4-9.6,18.6c.531,0,.462.8-.2,2.4s-1.537,3.468-2.6,5.6-2.138,4.2-3.2,6.2-1.737,3.268-2,3.8a74.624,74.624,0,0,1-5,11.6q-3,5.606-5.8,11.2-6,12-11.4,24.2t-9.8,25c-1.069.537-1.6,1.2-1.6,2a4.319,4.319,0,0,1-.8,2.4c1.6,0,2.462-.4,2.6-1.2a3.553,3.553,0,0,1,1-2,127.487,127.487,0,0,1,36.4-33.2q2.4-1.594,3.6-1.2t3.6,3.2a.352.352,0,0,0,.4.4q4.4.805,5.4,2.4a4.229,4.229,0,0,1,.4,3.6,14.014,14.014,0,0,1-2,4,6.484,6.484,0,0,0-1.4,3.6,10.131,10.131,0,0,1-2,6q-2.005,2.8-4,6-3.6,6.806-7.2,13.2t-6.8,13.2a11.417,11.417,0,0,1-2.6,3.8,10.582,10.582,0,0,0-2.6,4.2,55.487,55.487,0,0,0-3.2,9,39.623,39.623,0,0,1-3.6,9q-1.2,2.4-2.4,4.6a22.675,22.675,0,0,0-2,5.4,9.083,9.083,0,0,0,5-2q1.8-1.6,3.4-3.2,4.4-4.407,8.4-9a74.577,74.577,0,0,0,7.2-9.8q2-3.2,4.6-7.8T295.687,202.533Zm-70,14.4a16.078,16.078,0,0,0,2.4-1.4c.538-.4.669-1.262.4-2.6a3.989,3.989,0,0,1-1.8,1.6C226.024,214.8,225.687,215.6,225.687,216.933Zm8-17.6a40.692,40.692,0,0,0,2.8-6,51.215,51.215,0,0,0,2-6.8q-1.2,2.006-3,5.8A16.527,16.527,0,0,0,233.687,199.333Zm5.2-17.2q3.2-.8,5.2-5.4t1.2-7.8q-1.2,3.206-2.6,6.6A30.178,30.178,0,0,1,238.887,182.133Zm7.6-15.2a1.107,1.107,0,0,0,1.4-.2,1.635,1.635,0,0,0,.6-1,17.321,17.321,0,0,1,1.2-4.6c.531-1.2,1-2.263,1.4-3.2s.8-2,1.2-3.2a27.34,27.34,0,0,0,1-5q-1.2,2.8-3,7.8t-4.2,7Q244.887,165.733,246.487,166.933Zm5.2,26.4a6.078,6.078,0,0,1,2-2.4q1.2-.8.4-2.8a7.173,7.173,0,0,1-2,2C251.287,190.67,251.149,191.733,251.687,193.333Zm4.8-50q-2.4,1.6-1.2,4.8-.806-1.2.8-2.2C257.149,145.271,257.287,144.4,256.487,143.333Zm.8,82q2-2.794,4-5.6a14.442,14.442,0,0,0,2.4-7.2q-2.4,3.6-4,6.6A26.937,26.937,0,0,0,257.287,225.333Zm4-93.6a34.367,34.367,0,0,1-1.8,3.8,4.316,4.316,0,0,0,.2,4.2q.8-2,1.4-4c.4-1.332.862-2.663,1.4-4a24.763,24.763,0,0,1,2.6-3.6q1.4-1.595.6-4.8a11.579,11.579,0,0,0-2.8,4.2Q262.082,129.735,261.287,131.733Zm1.6,46.4a21.856,21.856,0,0,0,4.4-2.4,7.365,7.365,0,0,0,2.4-4,5.931,5.931,0,0,0-3.8,2.6A17.792,17.792,0,0,1,262.887,178.133Zm4.8-56a6.359,6.359,0,0,0,.6-3.2c-.138-.8-1-1.6-2.6-2.4q.8,2.005,1.2,3A22.368,22.368,0,0,1,267.687,122.133Zm3.2-7.2q.8-1.594,2.4-4.6a12.439,12.439,0,0,0,1.6-3.8c0-.532-.4-.8-1.2-.8-.8.268-1.069.737-.8,1.4a1.56,1.56,0,0,1-.4,1.8Zm16.8,114.4a3.738,3.738,0,0,0,2.8-2.8,22.26,22.26,0,0,1,1.2-4,41.81,41.81,0,0,1-4.2,2.2q-2.2,1-2.2,4.2-2.8.393-3.6,2.4a10.826,10.826,0,0,1-2.4,3.6,7.281,7.281,0,0,1,4.8-2.2Q286.88,232.526,287.687,229.333Zm5.2-8.4q1.2.805,1.2-1.2c-.538-1.063-1.069-1.462-1.6-1.2-1.069.537-1.469,1.2-1.2,2A2.3,2.3,0,0,0,292.887,220.933Z"/></clipPath><clipPath id="clip-path-5" transform="translate(-14.335 -9.538)"><path id="C" class="cls-1 animate" d="M249.688,48.933a36.025,36.025,0,0,1-.4,17.6,57.113,57.113,0,0,1-12,21.2q-8.007,8.8-17.2,17.2h-.4a34.138,34.138,0,0,0-4.4,2.2c-1.6.937-2.938.737-4-.6q-2.007-2-.2-3.6t3.4-3.2a148.963,148.963,0,0,0,14.6-16,81.953,81.953,0,0,0,11-18.8q4.4-11.195-.2-19.2t-15-13.6q-9.6-5.195-18.6-3.2a164.352,164.352,0,0,0-18.2,5.2,76.491,76.491,0,0,0-20.4,10q-9.207,6.4-18.4,13.2a25.409,25.409,0,0,0-3.8,2.8q-1.8,1.6-3.8,3.2-1.2,4-4.8,4.4h-1.2a11.608,11.608,0,0,1-2.2,4,14.194,14.194,0,0,1-3.4,2.8,6.317,6.317,0,0,0-5.4,2.4,41.121,41.121,0,0,1-3.8,4.4q0,3.206-3.6,4.4a9.378,9.378,0,0,0-4.4,3.8,15.928,15.928,0,0,1-4.4,4.6,6.43,6.43,0,0,1-4.8,5.2h-.4l-.4.4q-.806,3.6-3.6,4a8.419,8.419,0,0,0-2.8,4q-.805,2.4-4,3.2-3.206,2.007-5.4,7.4t-5.4,6.6a6.277,6.277,0,0,0-1.6,1.2,1.156,1.156,0,0,1-.8.4c-.269,0-.538.269-.8.8v1.2a1.162,1.162,0,0,1,.8-.4,1.156,1.156,0,0,0,.8-.4,120.2,120.2,0,0,1-6.8,10.6q-3.6,5.005-7.6,10.2a72.154,72.154,0,0,0-7.4,11.4q-3,5.8-6.6,11.4a61.433,61.433,0,0,0-7,16.8,113.552,113.552,0,0,1-5.8,17.2,38.409,38.409,0,0,0-2.2,11.8q-.207,6.207-1,12.6a48.779,48.779,0,0,0,.6,8q.6,3.6,1,7.2a164.849,164.849,0,0,0,6.4,23.2,93.3,93.3,0,0,0,10.8,21.2,36.74,36.74,0,0,0,16.8,14,49.732,49.732,0,0,0,22,3.2,62.8,62.8,0,0,0,15.2-2.6,44.64,44.64,0,0,0,14-7.4,3.137,3.137,0,0,1,2-.4,351.384,351.384,0,0,0,46-38.8,158.075,158.075,0,0,0,23-30,362.806,362.806,0,0,0,17.4-33.6q.8-2.4,1.4-4.6c.4-1.463.862-3,1.4-4.6q2,3.206.6,5.4a7.106,7.106,0,0,0-1,5,.815.815,0,0,1-.2.6.811.811,0,0,0-.2.6,6.972,6.972,0,0,1-.4,5.2,16.866,16.866,0,0,0-1.6,4.8,52.3,52.3,0,0,1-5.2,10.6,38.629,38.629,0,0,0-4.8,11,15.651,15.651,0,0,0-3.2,4.6q-1.2,2.6-2.4,5a50.8,50.8,0,0,1-9,12.2,73.8,73.8,0,0,0-9.8,12.2c1.6.8,2.663.6,3.2-.6a3.539,3.539,0,0,1,2.4-2.2q2.4,2,2.8.4a8.7,8.7,0,0,1,1.2-2.8c1.6-.269,2.063.262,1.4,1.6a25.3,25.3,0,0,1-3.4,4.8q-2.4,2.793-5.2,5.8a38.372,38.372,0,0,1-4.4,4.2,20.126,20.126,0,0,0-3.4,3.4,8.111,8.111,0,0,1-3.4,2.6,75.521,75.521,0,0,1-8.8,7.6,54.8,54.8,0,0,0-8.4,7.6,62.282,62.282,0,0,1-14.6,11.6,111.6,111.6,0,0,1-16.6,7.6,85.248,85.248,0,0,1-17.6,4.4,46.045,46.045,0,0,1-18-1.2,73.093,73.093,0,0,1-23-10,67.617,67.617,0,0,1-17.8-17.6,115.017,115.017,0,0,1-16.4-36,73.451,73.451,0,0,1-2.4-18.6,143.565,143.565,0,0,1,1.2-18.6,150.016,150.016,0,0,1,4.6-20.4q3-9.995,7-20a46.9,46.9,0,0,1,5-9.6,66.132,66.132,0,0,0,5.4-9.6,147.373,147.373,0,0,1,20.4-30.4q5.193-5.6,10-11.4t9.2-11.8q3.994-5.195,8-10.2a53.406,53.406,0,0,1,9.2-9,67.353,67.353,0,0,0,14.8-13.4,59.629,59.629,0,0,1,14.8-13,114.881,114.881,0,0,0,13-9.8,49.3,49.3,0,0,1,14.2-8.6,54.214,54.214,0,0,0,11.2-7,34.25,34.25,0,0,1,12-6.2,106.9,106.9,0,0,1,22.6-3.8q11-.6,22.6,5.4a64.822,64.822,0,0,1,12.6,9A28.451,28.451,0,0,1,249.688,48.933Zm-82.4,222q-2.805,0-2.8,3.6a15.423,15.423,0,0,0,2.6-1.6q.995-.805,1.8-1.6a25.3,25.3,0,0,0,3.6-2.6c1.063-.938,1.6-2.469,1.6-4.6q-2.4,1.593-4.2,3A7.773,7.773,0,0,0,167.288,270.933Zm29.2-26q-1.6,4.8-3.2,6.6c-1.069,1.2-1.8,1.662-2.2,1.4s-.268-1.138.4-2.6S193.819,247.064,196.487,244.933Zm10.8-24.8a2.489,2.489,0,0,0,.8-1.8q0-.995,1.6-1.4a39,39,0,0,0,.2,4q.2,2.007-2.2,3.6-2.007,4.8-2.6,5.4c-.4.4-1.537.062-3.4-1a34.373,34.373,0,0,0,4.4-4.4c-.537-1.063-.4-1.863.4-2.4A1.625,1.625,0,0,0,207.288,220.133Zm4.8-12.4q4.4-6.394,4.4-5.6a17.182,17.182,0,0,1-.4,2.8,48.92,48.92,0,0,1-1.8,4.6,46.327,46.327,0,0,0-1.8,4.6q-2.005-2-1.2-3.4A5.959,5.959,0,0,0,212.087,207.733Z"/></clipPath></defs><title>Logo-writting</title><g class="cls-2 animate"><polyline id="S_Trace" data-name="S Trace" class="cls-3 animate" points="471.165 142.962 459.165 128.962 448.165 126.962 436.165 131.962 421.165 145.962 414.165 153.962 412.165 158.962 405.165 177.962 402.165 188.962 408.165 199.962 426.165 206.962 439.165 211.962 409.165 236.962 387.165 252.962 372.165 256.962 369.165 250.962 382.165 230.962 394.165 216.962 409.165 204.962 428.165 186.962"/></g><g class="cls-4 animate"><polyline id="I_Tracé" data-name="I Tracé" class="cls-3 animate" points="405.165 82.962 383.165 114.962 392.165 124.962 382.165 142.962 364.165 162.962 355.165 187.962 353.165 203.962 353.165 216.962 362.165 218.962 378.165 204.962 390.165 187.962 402.165 172.962 409.165 163.962 399.165 145.962"/></g><g class="cls-5 animate"><path id="R_Tracé" data-name="R Tracé" class="cls-3 animate" d="M312.5,148.5l17,5a92.976,92.976,0,0,1-7,26c-6,14-17,33-17,33l-7,26,3,2,13-29,11-23,32-32,17-13,6-5,21-4" transform="translate(-14.335 -9.538)"/></g><g class="cls-6 animate"><polyline id="H_tracé" data-name="H tracé" class="cls-3 animate" points="306.165 16.962 265.165 93.962 217.165 198.962 197.165 250.962 196.722 261.996 202.165 248.962 207.165 234.962 224.165 192.962 271.165 147.962 282.165 145.962 278.165 158.962 241.165 224.962 246.165 235.962 253.165 237.962 261.165 231.962 291.165 182.962"/></g><g class="cls-7 animate"><path id="C_Tracé" data-name="C Tracé" class="cls-3 animate" d="M196.5,116.5l31-23,11-16,7-19s4-34.886-49-33.943c0-.057-43,22.943-43,22.943l-46,38-33,38-22,35-17,34-6,33,5,41,16,26s16,19,35,20c0,0,36,4,57-22l32-32L205.8,212.933,225.5,171.5" transform="translate(-14.335 -9.538)"/></g></svg>